<svg xmlns="http://www.w3.org/2000/svg" xmlns:xlink="http://www.w3.org/1999/xlink" width="40" height="42" viewBox="0 0 40 42">
    <defs>
        <linearGradient id="c" x1="55.9%" x2="55.9%" y1="268.249%" y2="-14.167%">
            <stop offset="0%" stop-color="#FF5B69"/>
            <stop offset="100%" stop-color="#FFEA87"/>
        </linearGradient>
        <path id="b" d="M35.157 37H.844c-.616 0-1.024-.294-.765-.55l4.7-4.641c.499-.494 1.576-.809 2.76-.809h20.922c1.185 0 2.261.315 2.76.809l4.7 4.64c.26.257-.148.551-.764.551"/>
        <filter id="a" width="121.6%" height="233.3%" x="-10.7%" y="-33.3%" filterUnits="objectBoundingBox">
            <feOffset dy="2" in="SourceAlpha" result="shadowOffsetOuter1"/>
            <feGaussianBlur in="shadowOffsetOuter1" result="shadowBlurOuter1" stdDeviation="1"/>
            <feColorMatrix in="shadowBlurOuter1" values="0 0 0 0 0.639215686 0 0 0 0 0.305882353 0 0 0 0 0.0823529412 0 0 0 0.2 0"/>
        </filter>
        <linearGradient id="f" x1="63.082%" x2="68.673%" y1="100%" y2="0%">
            <stop offset="0%" stop-color="#A976FF"/>
            <stop offset="100%" stop-color="#FEACD4"/>
        </linearGradient>
        <path id="e" d="M17.352 6.357c-3.704.001-6.723 3.056-6.71 6.788.013 3.734 2.996 6.783 6.693 6.767 3.94-.017 6.73-3.217 6.73-6.768-.001-3.74-3.012-6.788-6.713-6.787m13.315 6.768c-.02 2.902-.916 5.53-2.66 7.866-3.198 4.286-6.395 8.573-9.596 12.857-.475.637-1.164.774-1.757.362a1.453 1.453 0 0 1-.328-.319c-3.31-4.438-6.663-8.844-9.91-13.328A12.728 12.728 0 0 1 6.912 5C10.225.988 14.549-.646 19.64.23c5.12.883 8.573 3.935 10.364 8.859.469 1.288.626 2.643.663 4.036"/>
        <filter id="d" width="130%" height="123.2%" x="-15%" y="-5.8%" filterUnits="objectBoundingBox">
            <feOffset dy="2" in="SourceAlpha" result="shadowOffsetOuter1"/>
            <feGaussianBlur in="shadowOffsetOuter1" result="shadowBlurOuter1" stdDeviation="1"/>
            <feColorMatrix in="shadowBlurOuter1" values="0 0 0 0 0.541176471 0 0 0 0 0.0117647059 0 0 0 0 0.592156863 0 0 0 0.2 0"/>
        </filter>
    </defs>
    <g fill="none" fill-rule="evenodd">
        <path stroke="#FFF" stroke-opacity=".01" stroke-width=".5" d="M.25.25h39.5v39.5H.25z"/>
        <g transform="translate(2.222 .556)">
            <use fill="#000" filter="url(#a)" xlink:href="#b"/>
            <use fill="url(#c)" xlink:href="#b"/>
        </g>
        <g transform="translate(2.222 .556)">
            <use fill="#000" filter="url(#d)" xlink:href="#e"/>
            <use fill="url(#f)" xlink:href="#e"/>
        </g>
    </g>
</svg>
